<svg viewBox="0 0 200 200" xmlns="http://www.w3.org/2000/svg">
  <path fill="#FF0066" d="M37.5,-63.4C49.3,-58.2,60,-49.5,68.5,-38.4C77,-27.2,83.3,-13.6,83.6,0.2C84,14,78.5,28.1,70.4,39.9C62.3,51.7,51.6,61.4,39.5,67.6C27.3,73.8,13.7,76.6,3.7,70.2C-6.3,63.8,-12.5,48.2,-20.3,39.5C-28.2,30.7,-37.5,28.9,-47.3,23.5C-57.1,18,-67.3,9,-70.6,-1.9C-74,-12.9,-70.4,-25.7,-64.6,-38C-58.7,-50.3,-50.6,-62,-39.5,-67.6C-28.4,-73.1,-14.2,-72.6,-0.7,-71.4C12.9,-70.3,25.8,-68.6,37.5,-63.4Z" transform="translate(100 100)" />
</svg>